<?xml version="1.0" encoding="UTF-8" standalone="no"?>
<!-- Created with Inkscape (http://www.inkscape.org/) -->

<svg
   xmlns:dc="http://purl.org/dc/elements/1.1/"
   xmlns:cc="http://creativecommons.org/ns#"
   xmlns:rdf="http://www.w3.org/1999/02/22-rdf-syntax-ns#"
   xmlns:svg="http://www.w3.org/2000/svg"
   xmlns="http://www.w3.org/2000/svg"
   xmlns:xlink="http://www.w3.org/1999/xlink"
   version="1.1"
   width="114"
   height="56.700001"
   viewBox="0 0 114 56.7"
   id="Layer_1"
   xml:space="preserve"><metadata
     id="metadata175"><rdf:RDF><cc:Work
         rdf:about=""><dc:format>image/svg+xml</dc:format><dc:type
           rdf:resource="http://purl.org/dc/dcmitype/StillImage" /><dc:title></dc:title></cc:Work></rdf:RDF></metadata><defs
     id="defs173" /><g
     transform="matrix(-1,0,0,-1,111.7,56.4)"
     id="g3"><g
       id="g5"><defs
         id="defs7"><ellipse
           cx="538.59998"
           cy="28.299999"
           rx="0"
           ry="28.200001"
           id="SVGID_1_" /></defs><clipPath
         id="SVGID_2_"><use
           id="use11"
           style="overflow:visible"
           x="0"
           y="0"
           width="114"
           height="56.700001"
           xlink:href="#SVGID_1_" /></clipPath></g><g
       id="g13"><defs
         id="defs15"><ellipse
           cx="-374.10001"
           cy="28.299999"
           rx="0"
           ry="28.200001"
           id="SVGID_3_" /></defs><clipPath
         id="SVGID_4_"><use
           id="use19"
           style="overflow:visible"
           x="0"
           y="0"
           width="114"
           height="56.700001"
           xlink:href="#SVGID_3_" /></clipPath><g
         clip-path="url(#SVGID_4_)"
         id="g21"><g
           id="g23"><g
             id="g25"><g
               id="g27"><polyline
                 points="-374.1,-41.8 -374.1,-19.4 -374.1,3 -374.1,-19.4 -374.1,-41.8       "
                 id="polyline29"
                 style="fill:none" /><polyline
                 points="-374.1,5.9 -374.1,28.3 -374.1,50.7 -374.1,28.3 -374.1,5.9       "
                 id="polyline31"
                 style="fill:none" /><polyline
                 points="-374.1,53.5 -374.1,75.9 -374.1,98.3 -374.1,75.9 -374.1,53.5       "
                 id="polyline33"
                 style="fill:none" /></g></g></g></g></g><g
       id="g35"><defs
         id="defs37"><path
           d="m -374.1,0.1 h 912.6 c 0,0 0,12.6 0,28.2 0,15.6 0,28.2 0,28.2 h -912.6 c 0,0 0,-12.6 0,-28.2 0,-15.6 0,-28.2 0,-28.2 z"
           id="SVGID_5_" /></defs><clipPath
         id="SVGID_6_"><use
           id="use41"
           style="overflow:visible"
           x="0"
           y="0"
           width="114"
           height="56.700001"
           xlink:href="#SVGID_5_" /></clipPath></g><g
       id="g43"><defs
         id="defs45"><path
           d="m -374.1,56.4 c 0,0 0,-12.6 0,-28.2 0,-15.6 0,-28.2 0,-28.2 h 912.6 c 0,0 0,12.6 0,28.2 0,15.6 0,28.2 0,28.2 -273.7,0 -638.8,0 -912.6,0 z"
           id="SVGID_7_" /></defs><clipPath
         id="SVGID_8_"><use
           id="use49"
           style="overflow:visible"
           x="0"
           y="0"
           width="114"
           height="56.700001"
           xlink:href="#SVGID_7_" /></clipPath><g
         clip-path="url(#SVGID_8_)"
         id="g51"><g
           id="XMLID_1_"><g
             id="g54"><path
               d="m 95,30.3 h 16.3 c -5.7,1.9 -7.5,5.7 -8.5,16.5 -0.7,7.7 -4.2,9.7 -4.2,9.7 -2.6,0 -5.2,-11.1 -7.5,-22.9 0.9,-2 2.1,-3 3.9,-3.3 z"
               id="path56"
               style="fill:#eb7077" /><path
               d="M 98.5,56.4 H 82.2 c 2.9,0 4.9,-5.5 6.1,-12.5 0.8,-4.7 1.6,-8.1 2.7,-10.4 2.3,11.8 4.9,22.9 7.5,22.9 z"
               id="path58"
               style="fill:#eb7077" /><path
               d="m 91,33.5 c -1.2,2.2 -2,5.7 -2.7,10.4 -1.2,7 -3.2,12.5 -6.1,12.5 C 79.1,55.7 76.6,43.9 73.3,25.9 73.2,25.3 73.1,24.8 73,24.2 75.5,11.2 78.1,0 80.7,0 h 0.9 c 3.1,0.7 5.6,12.5 8.9,30.5 0.2,1.1 0.3,2 0.5,3 z"
               id="path60"
               style="fill:#f6a2ad" /><path
               d="M 65.3,0.1 H 80.7 C 78.1,0.1 75.4,11.3 73,24.3 70.7,12.1 68,0.1 65.3,0.1 z"
               id="path62"
               style="fill:#eb7077" /><path
               d="m 73,24.3 c -0.2,1.3 -0.5,2.6 -0.7,4 -3.7,20.2 -5.9,27.6 -8.5,28.2 -2.9,0 -5.7,-13.1 -8,-25.9 0,-0.2 -0.1,-0.4 -0.1,-0.6 0.1,-0.6 0.2,-1.1 0.3,-1.7 C 59.7,8 61.9,0.7 64.4,0.1 h 0.9 c 2.7,0 5.4,12 7.7,24.2 z"
               id="path64"
               style="fill:#eb7077" /><path
               d="M 63.8,56.4 H 47.5 c 2.8,0 5.6,-12.5 8.1,-26.5 0,0.2 0.1,0.4 0.1,0.6 2.4,12.9 5.3,25.9 8.1,25.9 z"
               id="path66"
               style="fill:#eb7077" /><path
               d="M 55.7,30 C 53.1,44 50.3,56.5 47.6,56.5 44.4,55.7 42,43.9 38.6,26 38.5,25.4 38.4,24.9 38.3,24.3 40.8,11.3 43.4,0.1 46,0.1 h 0.9 C 50,0.8 52.4,12.4 55.7,30 z"
               id="path68"
               style="fill:#f6a2ad" /><path
               d="M 30.6,0.1 H 46 C 43.4,0.1 40.8,11.3 38.3,24.3 36,12.1 33.3,0.1 30.6,0.1 z"
               id="path70"
               style="fill:#eb7077" /><path
               d="m 38.3,24.3 c -0.2,1.3 -0.5,2.6 -0.7,4 -3.7,20.2 -5.9,27.6 -8.5,28.2 -2.9,0 -1.8,-0.5 -3.6,-8.6 C 23.7,39.8 22.3,35 20.4,32.5 20.7,31.1 20.9,29.7 21.2,28.3 25,8 27.2,0.7 29.7,0.1 h 0.9 c 2.7,0 5.4,12 7.7,24.2 z"
               id="path72"
               style="fill:#eb7077" /><path
               d="M 29.1,56.4 H 12.8 c 2.6,0 5.2,-11.1 7.7,-24 1.8,2.5 3.2,7.3 5.1,15.4 1.8,8.1 0.6,8.6 3.5,8.6 z"
               id="path74"
               style="fill:#eb7077" /><path
               d="M 20.5,32.4 C 18,45.3 15.4,56.4 12.8,56.4 12.5,56 10.7,56.4 9,46.4 7.5,37.2 4.8,31.4 0.4,30.3 h 16.3 c 1.6,0.1 2.7,0.7 3.8,2.1 z"
               id="path76"
               style="fill:#f6a2ad" /></g><g
             id="g78" /></g></g></g></g><path
     d="M 194.8,54.9"
     id="path80"
     style="fill:none" /><g
     transform="matrix(-1,0,0,-1,111.7,56.3)"
     id="g82"><g
       id="g84"><defs
         id="defs86"><ellipse
           cx="538.59998"
           cy="28.200001"
           rx="0"
           ry="28.200001"
           id="SVGID_9_" /></defs><clipPath
         id="SVGID_10_"><use
           id="use90"
           style="overflow:visible"
           x="0"
           y="0"
           width="114"
           height="56.700001"
           xlink:href="#SVGID_9_" /></clipPath></g><g
       id="g92"><defs
         id="defs94"><ellipse
           cx="-374.10001"
           cy="28.200001"
           rx="0"
           ry="28.200001"
           id="SVGID_11_" /></defs><clipPath
         id="SVGID_12_"><use
           id="use98"
           style="overflow:visible"
           x="0"
           y="0"
           width="114"
           height="56.700001"
           xlink:href="#SVGID_11_" /></clipPath><g
         clip-path="url(#SVGID_12_)"
         id="g100"><g
           id="g102"><g
             id="g104"><g
               id="g106"><polyline
                 points="-374.1,-41.9 -374.1,-19.5 -374.1,2.9 -374.1,-19.5 -374.1,-41.9       "
                 id="polyline108"
                 style="fill:none" /><polyline
                 points="-374.1,5.8 -374.1,28.2 -374.1,50.6 -374.1,28.2 -374.1,5.8       "
                 id="polyline110"
                 style="fill:none" /><polyline
                 points="-374.1,53.4 -374.1,75.8 -374.1,98.2 -374.1,75.8 -374.1,53.4       "
                 id="polyline112"
                 style="fill:none" /></g></g></g></g></g><g
       id="g114"><defs
         id="defs116"><path
           d="m -374.1,0 h 912.6 c 0,0 0,12.6 0,28.2 0,15.6 0,28.2 0,28.2 h -912.6 c 0,0 0,-12.6 0,-28.2 0,-15.6 0,-28.2 0,-28.2 z"
           id="SVGID_13_" /></defs><clipPath
         id="SVGID_14_"><use
           id="use120"
           style="overflow:visible"
           x="0"
           y="0"
           width="114"
           height="56.700001"
           xlink:href="#SVGID_13_" /></clipPath></g><g
       id="g122"><defs
         id="defs124"><path
           d="m -374.1,56.3 c 0,0 0,-12.6 0,-28.2 0,-15.6 0,-28.2 0,-28.2 h 912.6 c 0,0 0,12.6 0,28.2 0,15.6 0,28.2 0,28.2 -273.7,0 -638.8,0 -912.6,0 z"
           id="SVGID_15_" /></defs><clipPath
         id="SVGID_16_"><use
           id="use128"
           style="overflow:visible"
           x="0"
           y="0"
           width="114"
           height="56.700001"
           xlink:href="#SVGID_15_" /></clipPath><g
         clip-path="url(#SVGID_16_)"
         id="g130"><g
           id="XMLID_2_"><g
             id="g133"><path
               d="m 95,30.2 h 16.3 c -5.7,1.9 -7.5,5.7 -8.5,16.5 -0.7,7.7 -4.2,9.7 -4.2,9.7 -2.6,0 -5.2,-11.1 -7.5,-22.9 0.9,-2 2.1,-3 3.9,-3.3 z"
               id="path135"
               style="fill:#eb7077" /><path
               d="M 98.5,56.3 H 82.2 c 2.9,0 4.9,-5.5 6.1,-12.5 0.8,-4.7 1.6,-8.1 2.7,-10.4 2.3,11.8 4.9,22.9 7.5,22.9 z"
               id="path137"
               style="fill:#eb7077" /><path
               d="m 91,33.4 c -1.2,2.2 -2,5.7 -2.7,10.4 -1.2,7 -3.2,12.5 -6.1,12.5 C 79.1,55.6 76.6,43.8 73.3,25.8 73.2,25.2 73.1,24.7 73,24.1 75.5,11.2 78.1,0 80.7,0 h 0.9 c 3.1,0.7 5.6,12.5 8.9,30.5 0.2,0.9 0.3,1.9 0.5,2.9 z"
               id="path139"
               style="fill:#f6a2ad" /><path
               d="M 65.3,0 H 80.7 C 78.1,0 75.4,11.2 73,24.2 70.7,12 68,0 65.3,0 z"
               id="path141"
               style="fill:#eb7077" /><path
               d="m 73,24.2 c -0.2,1.3 -0.5,2.6 -0.7,4 -3.7,20.2 -5.9,27.6 -8.5,28.2 -2.9,0 -5.7,-13.1 -8,-25.9 0,-0.2 -0.1,-0.4 -0.1,-0.6 0.1,-0.6 0.2,-1.1 0.3,-1.7 C 59.7,7.9 61.9,0.6 64.4,0 h 0.9 C 68,0 70.7,12 73,24.2 z"
               id="path143"
               style="fill:#eb7077" /><path
               d="M 63.8,56.3 H 47.5 c 2.8,0 5.6,-12.5 8.1,-26.5 0,0.2 0.1,0.4 0.1,0.6 2.4,12.9 5.3,25.9 8.1,25.9 z"
               id="path145"
               style="fill:#eb7077" /><path
               d="M 55.7,29.9 C 53.1,43.9 50.3,56.4 47.6,56.4 44.5,55.7 42,43.9 38.7,25.9 38.6,25.3 38.5,24.8 38.4,24.2 40.8,11.2 43.4,0 46,0 h 0.9 c 3.1,0.7 5.5,12.2 8.8,29.9 z"
               id="path147"
               style="fill:#f6a2ad" /><path
               d="M 30.6,0 H 46 C 43.4,0 40.8,11.2 38.3,24.2 36,12 33.3,0 30.6,0 z"
               id="path149"
               style="fill:#eb7077" /><path
               d="m 38.3,24.2 c -0.2,1.3 -0.5,2.6 -0.7,4 -3.7,20.2 -5.9,27.6 -8.5,28.2 -2.9,0 -1.8,-0.5 -3.6,-8.6 C 23.7,39.7 22.3,34.9 20.4,32.4 20.7,31 20.9,29.6 21.2,28.2 25,7.9 27.2,0.6 29.7,0 h 0.9 c 2.7,0 5.4,12 7.7,24.2 z"
               id="path151"
               style="fill:#eb7077" /><path
               d="M 29.1,56.3 H 12.8 c 2.6,0 5.2,-11.1 7.7,-24 1.8,2.5 3.2,7.3 5.1,15.4 1.8,8.1 0.6,8.6 3.5,8.6 z"
               id="path153"
               style="fill:#eb7077" /><path
               d="m 20.5,32.3 c -2.5,12.9 -5.1,24 -7.7,24 -0.3,-0.4 -2.1,0 -3.8,-10 C 7.5,37.1 4.8,31.3 0.4,30.2 h 16.3 c 1.6,0 2.7,0.7 3.8,2.1 z"
               id="path155"
               style="fill:#f6a2ad" /></g><g
             id="g157" /></g></g></g></g><g
     transform="matrix(-1,0,0,-1,3.8146973e-7,113.4)"
     id="g159" /><g
     transform="matrix(-1,0,0,-1,3.8146973e-7,113.4)"
     id="g161" /><g
     transform="matrix(-1,0,0,-1,3.8146973e-7,113.4)"
     id="g163" /><g
     transform="matrix(-1,0,0,-1,3.8146973e-7,113.4)"
     id="g165" /><g
     transform="matrix(-1,0,0,-1,3.8146973e-7,113.4)"
     id="g167" /><g
     transform="matrix(-1,0,0,-1,3.8146973e-7,113.4)"
     id="g169" /></svg>