<?xml version="1.0" encoding="utf-8"?>
<!-- Generator: Adobe Illustrator 19.1.0, SVG Export Plug-In . SVG Version: 6.00 Build 0)  -->
<svg version="1.1" id="Layer_1" xmlns="http://www.w3.org/2000/svg" xmlns:xlink="http://www.w3.org/1999/xlink" x="0px" y="0px"
	 viewBox="0 0 400 210" enable-background="new 0 0 400 210" xml:space="preserve">
<g>
	<path fill="#427DE0" d="M45,23.2h166.1c10.5,0,19,8.5,19,19v63.4c0,10.5-8.5,19-19,19h-59.6l8.2,20l-36-20H45.1
		c-10.5,0-19-8.5-19-19V42.2C26,31.8,34.5,23.2,45,23.2z"/>
	<path fill="#FFFFFF" d="M36.3,40.5c1.2-1.6,2.9-2.4,5.3-2.6c4.3-0.3,6.7,1.7,7.3,6c2.6,17.4,5.4,32.2,8.4,44.3l18.3-34.8
		c1.7-3.2,3.8-4.8,6.3-5c3.7-0.3,5.9,2.1,6.8,7c2.1,11.1,4.8,20.5,7.9,28.5c2.2-21.2,5.8-36.5,11-45.9c1.3-2.3,3.1-3.5,5.5-3.7
		c1.9-0.2,3.7,0.4,5.3,1.7c1.6,1.3,2.4,2.8,2.6,4.8c0.1,1.5-0.2,2.8-0.8,4c-3.3,6-5.9,16.1-8.1,30.1c-2.1,13.6-2.8,24.2-2.3,31.8
		c0.2,2.1-0.2,3.9-1,5.5c-1,1.8-2.5,2.8-4.4,3c-2.2,0.2-4.4-0.8-6.6-3.1c-7.8-7.9-13.9-19.8-18.4-35.5c-5.4,10.7-9.4,18.7-12,24
		c-4.9,9.4-9.1,14.3-12.6,14.5c-2.3,0.2-4.2-1.8-5.8-5.8c-4.3-10.9-8.8-32-13.8-63.3C34.7,43.9,35.1,42,36.3,40.5z"/>
	<path fill="#FFFFFF" d="M215.7,53.6c-3-5.3-7.4-8.4-13.4-9.7c-1.6-0.3-3.1-0.5-4.5-0.5c-8,0-14.5,4.2-19.6,12.5
		c-4.3,7.1-6.5,14.9-6.5,23.5c0,6.4,1.3,11.9,4,16.5c3,5.3,7.4,8.4,13.4,9.7c1.6,0.3,3.1,0.5,4.5,0.5c8.1,0,14.6-4.2,19.6-12.5
		c4.3-7.2,6.5-15,6.5-23.6C219.7,63.5,218.4,58.1,215.7,53.6L215.7,53.6z M205.2,76.7c-1.2,5.5-3.3,9.6-6.3,12.3
		c-2.4,2.2-4.7,3.1-6.8,2.7c-2-0.4-3.7-2.2-4.9-5.4c-1-2.6-1.5-5.2-1.5-7.6c0-2.1,0.2-4.2,0.6-6.1c0.8-3.4,2.2-6.8,4.4-9.9
		c2.8-4.1,5.7-5.8,8.7-5.2c2,0.4,3.7,2.2,4.9,5.4c1,2.6,1.5,5.2,1.5,7.6C205.8,72.7,205.5,74.8,205.2,76.7L205.2,76.7z"/>
	<path fill="#FFFFFF" d="M163.4,53.6c-3-5.3-7.5-8.4-13.4-9.7c-1.6-0.3-3.1-0.5-4.5-0.5c-8,0-14.5,4.2-19.6,12.5
		c-4.3,7.1-6.5,14.9-6.5,23.5c0,6.4,1.3,11.9,4,16.5c3,5.3,7.4,8.4,13.4,9.7c1.6,0.3,3.1,0.5,4.5,0.5c8.1,0,14.6-4.2,19.6-12.5
		c4.3-7.2,6.5-15,6.5-23.6C167.4,63.5,166,58.1,163.4,53.6L163.4,53.6z M152.8,76.7c-1.2,5.5-3.3,9.6-6.3,12.3
		c-2.4,2.2-4.7,3.1-6.8,2.7c-2-0.4-3.7-2.2-4.9-5.4c-1-2.6-1.5-5.2-1.5-7.6c0-2.1,0.2-4.2,0.6-6.1c0.8-3.4,2.2-6.8,4.4-9.9
		c2.8-4.1,5.7-5.8,8.7-5.2c2,0.4,3.7,2.2,4.9,5.4c1,2.6,1.5,5.2,1.5,7.6C153.4,72.7,153.3,74.8,152.8,76.7L152.8,76.7z"/>
</g>
<g>
	<path fill="#427DE0" d="M276.4,68.1c0.7,0.5,1.5,1.3,2.4,2.2c0.9,0.9,1.8,2,2.7,3.3c0.9,1.3,1.6,2.8,2.2,4.5
		c0.6,1.7,0.9,3.6,0.9,5.8c0,2.2-0.3,4.1-0.8,5.7c-0.5,1.6-1.3,3.1-2.2,4.4c-0.9,1.3-2,2.4-3.1,3.5c-1.2,1-2.4,2-3.6,3
		c-0.8,0.8-1.5,1.6-2.2,2.4c-0.7,0.9-1,1.9-1,3.3s0.3,2.3,1,3.1s1.4,1.4,2,1.9l4.2,3.3c1.2,1.1,2.5,2.2,3.7,3.3
		c1.2,1.1,2.2,2.2,3.1,3.5c0.9,1.2,1.6,2.6,2.1,4.2c0.5,1.5,0.8,3.3,0.8,5.3c0,2.7-0.7,5.4-2,8c-1.3,2.6-3.2,5-5.8,7
		c-2.6,2.1-5.7,3.7-9.6,5c-3.8,1.3-8.2,1.9-13.2,1.9c-4.2,0-7.8-0.5-11-1.4c-3.1-0.9-5.7-2.2-7.8-3.7c-2.1-1.5-3.6-3.3-4.6-5.3
		c-1-2-1.5-4-1.5-6.2c0-2.1,0.6-4.5,1.9-7.1c1.3-2.7,3.6-5,7-7c1.8-1.1,3.7-2,5.7-2.6c2-0.7,4.1-1.2,6.1-1.6c2-0.4,3.9-0.7,5.7-0.8
		c1.8-0.2,3.3-0.3,4.6-0.3c-0.9-1.1-1.6-2.2-2.4-3.4c-0.7-1.2-1.1-2.7-1.1-4.5c0-1,0.1-1.8,0.3-2.5c0.2-0.7,0.5-1.3,0.8-2
		c-0.6,0.1-1.2,0.1-1.9,0.2c-0.6,0-1.2,0.1-1.9,0.1c-3.1,0-5.8-0.5-8.2-1.6c-2.4-1-4.4-2.4-6-4.1c-1.6-1.7-2.9-3.7-3.7-5.9
		c-0.9-2.2-1.3-4.4-1.3-6.7c0-2.7,0.6-5.4,1.9-8.2c1.2-2.7,3.1-5.2,5.6-7.4c3.3-2.7,6.8-4.4,10.5-5.2c3.7-0.8,7.1-1.2,10.3-1.2H291
		l-7.4,4.1H276.4z M280.8,135c0-1.5-0.3-2.8-0.8-4c-0.5-1.2-1.3-2.4-2.3-3.5c-1-1.2-2.3-2.4-3.9-3.6c-1.6-1.2-3.5-2.6-5.7-4.2
		c-0.5-0.1-0.9-0.1-1.2-0.1c-0.3,0-0.8,0-1.5,0c-0.2,0-0.8,0-1.6,0.1c-0.9,0-1.9,0.1-3,0.2c-1.2,0.1-2.4,0.3-3.7,0.6
		c-1.3,0.3-2.6,0.6-3.8,1c-0.6,0.2-1.5,0.6-2.6,1.1c-1.1,0.5-2.2,1.2-3.3,2.1c-1.1,0.9-2,2.1-2.8,3.5c-0.8,1.4-1.2,3.1-1.2,5.2
		c0,4.2,1.8,7.6,5.5,10.2c3.7,2.6,8.6,3.9,14.9,3.9c5.6,0,9.8-1.2,12.7-3.5C279.3,141.7,280.8,138.7,280.8,135z M263.6,100.9
		c1.5,0,2.9-0.3,4.4-0.9c1.4-0.6,2.6-1.4,3.5-2.3c1.3-1.3,2.1-2.8,2.4-4.4c0.3-1.6,0.5-3,0.5-4.1c0-2.1-0.3-4.4-0.9-6.9
		c-0.6-2.5-1.5-4.8-2.8-7c-1.2-2.2-2.8-4-4.6-5.4c-1.8-1.4-3.9-2.2-6.3-2.2c-1.5,0-3.1,0.4-4.5,1c-1.5,0.7-2.7,1.6-3.6,2.8
		c-1,1.2-1.7,2.6-2,4.1c-0.3,1.5-0.5,3-0.5,4.5c0,1.9,0.3,4.1,0.9,6.5c0.6,2.4,1.5,4.7,2.7,6.8c1.2,2.1,2.7,3.9,4.5,5.3
		C259,100.2,261.1,100.9,263.6,100.9z"/>
	<path fill="#427DE0" d="M317.9,116.6h-20.5c0.7-0.9,1.2-1.5,1.6-2.1c0.4-0.5,0.7-1,0.9-1.4c0.2-0.4,0.4-0.8,0.5-1.2
		c0.1-0.4,0.1-0.9,0.1-1.5V91.5c0-4.6,0-9.9,0.1-15.9c0.1-6,0.2-12.1,0.3-18.1c0.1-2.9,0.2-6.1,0.3-9.5c0.2-3.4,0.3-6.5,0.3-9.2
		h-9.1l8.7-4.1h16.6c-0.9,0.5-1.7,1-2.3,1.4c-0.6,0.4-1.1,0.8-1.5,1.3c-0.4,0.5-0.8,1-1,1.7c-0.2,0.7-0.4,1.5-0.5,2.5
		c-0.5,4.5-0.8,10.1-0.9,16.9c-0.1,6.8-0.2,14.3-0.2,22.6v26.8c0,2.2,0.3,3.7,0.9,4.4c0.6,0.7,1.8,1.1,3.8,1.2c1,0.2,2,0.3,3,0.3
		c1,0,2,0.1,3,0.3L317.9,116.6z"/>
	<path fill="#427DE0" d="M366.5,114c-0.6,0.4-1.3,0.8-1.9,1.1c-0.7,0.3-1.3,0.7-1.9,1c-1.9,0.8-3.8,1.4-5.7,1.7
		c-1.9,0.3-3.7,0.5-5.5,0.5c-0.9,0-2,0-3.1-0.1c-1.2-0.1-2.4-0.3-3.8-0.5c-1.4-0.3-2.7-0.7-4.2-1.3c-1.4-0.6-2.9-1.5-4.4-2.6
		c-2.1-1.5-3.9-3.2-5.3-5c-1.5-1.9-2.7-3.9-3.7-6.1c-1-2.2-1.7-4.4-2.1-6.7c-0.5-2.3-0.7-4.5-0.7-6.7c0-4.5,0.8-8.4,2.5-11.8
		c1.7-3.4,3.8-6.1,6.3-8.4c2.6-2.2,5.4-3.9,8.5-5c3.1-1.1,6.2-1.7,9.2-1.7c2.1,0,4.2,0.3,6.2,0.8c2,0.5,4,1.4,5.7,2.4
		c1.5,0.9,2.7,1.9,3.6,3c0.9,1.1,1.7,2.1,2.3,3.2c0.6,1,1.1,2,1.4,2.9c0.3,0.9,0.6,1.7,0.8,2.4l-27.3,11l-8.9,0.7
		c0.7,3.7,1.8,7,3.4,9.9c1.5,2.9,3.4,5.3,5.5,7.3c2.1,2,4.5,3.5,7,4.6c2.6,1,5.2,1.6,8,1.6c2.9,0,5.5-0.4,7.8-1.3
		c2.2-0.9,4.4-1.8,6.4-2.8L366.5,114z M355.6,79.4c1.1-0.4,1.9-0.8,2.5-1.2c0.6-0.4,0.9-1.1,0.9-1.9c0-1.2-0.3-2.3-0.9-3.5
		c-0.6-1.2-1.5-2.3-2.5-3.2c-1-0.9-2.3-1.7-3.7-2.3c-1.4-0.6-2.9-0.9-4.4-0.9c-1.2,0-2.5,0.3-4.1,0.8c-1.5,0.5-3,1.4-4.4,2.6
		c-1.4,1.2-2.5,2.9-3.5,5c-1,2.1-1.5,4.7-1.5,7.8c0,1,0,2,0.1,3c0.1,1,0.2,2.1,0.2,3.1L355.6,79.4z"/>
</g>
<g>
	<path fill="#427DE0" d="M32.5,174.7l2.6,11.1l3.1-11.1h2l3.1,11.1l2.6-11.1h2l-3.6,13.6h-1.9L39.1,177L36,188.3H34l-3.6-13.6H32.5z
		"/>
	<path fill="#427DE0" d="M56.1,179.4c0.9,0.9,1.3,2.1,1.3,3.8c0,1.6-0.4,2.9-1.2,4c-0.8,1-2,1.6-3.6,1.6c-1.4,0-2.4-0.5-3.2-1.4
		c-0.8-0.9-1.2-2.2-1.2-3.7c0-1.7,0.4-3,1.3-4c0.8-1,2-1.5,3.4-1.5C54.2,178.1,55.3,178.6,56.1,179.4z M55.1,186
		c0.4-0.8,0.6-1.8,0.6-2.8c0-0.9-0.1-1.7-0.4-2.3c-0.5-0.9-1.3-1.4-2.4-1.4c-1,0-1.7,0.4-2.2,1.2c-0.5,0.8-0.7,1.7-0.7,2.8
		c0,1.1,0.2,1.9,0.7,2.6c0.5,0.7,1.2,1.1,2.2,1.1C54,187.3,54.7,186.8,55.1,186z"/>
	<path fill="#427DE0" d="M66.7,179.4c0.9,0.9,1.3,2.1,1.3,3.8c0,1.6-0.4,2.9-1.2,4c-0.8,1-2,1.6-3.6,1.6c-1.4,0-2.4-0.5-3.2-1.4
		c-0.8-0.9-1.2-2.2-1.2-3.7c0-1.7,0.4-3,1.3-4c0.8-1,2-1.5,3.4-1.5C64.8,178.1,65.8,178.6,66.7,179.4z M65.7,186
		c0.4-0.8,0.6-1.8,0.6-2.8c0-0.9-0.1-1.7-0.4-2.3c-0.5-0.9-1.3-1.4-2.4-1.4c-1,0-1.7,0.4-2.2,1.2c-0.5,0.8-0.7,1.7-0.7,2.8
		c0,1.1,0.2,1.9,0.7,2.6c0.5,0.7,1.2,1.1,2.2,1.1C64.5,187.3,65.3,186.8,65.7,186z"/>
	<path fill="#427DE0" d="M79.9,175.7c0.9,0.9,1.5,1.9,1.6,3.1h-1.8c-0.2-0.9-0.6-1.6-1.2-2.1c-0.6-0.5-1.4-0.8-2.5-0.8
		c-1.3,0-2.4,0.5-3.2,1.4c-0.8,0.9-1.2,2.4-1.2,4.3c0,1.6,0.4,2.9,1.1,3.9c0.7,1,1.8,1.5,3.3,1.5c1.3,0,2.4-0.5,3.1-1.6
		c0.4-0.5,0.6-1.3,0.8-2.2h1.8c-0.2,1.4-0.7,2.6-1.6,3.6c-1.1,1.2-2.5,1.8-4.3,1.8c-1.6,0-2.9-0.5-3.9-1.4c-1.4-1.3-2.1-3.2-2.1-5.9
		c0-2,0.5-3.7,1.6-4.9c1.1-1.4,2.7-2.1,4.7-2.1C77.7,174.3,79,174.8,79.9,175.7z"/>
	<path fill="#427DE0" d="M91,179.4c0.9,0.9,1.3,2.1,1.3,3.8c0,1.6-0.4,2.9-1.2,4c-0.8,1-2,1.6-3.6,1.6c-1.4,0-2.4-0.5-3.2-1.4
		c-0.8-0.9-1.2-2.2-1.2-3.7c0-1.7,0.4-3,1.3-4c0.8-1,2-1.5,3.4-1.5C89.1,178.1,90.1,178.6,91,179.4z M90,186
		c0.4-0.8,0.6-1.8,0.6-2.8c0-0.9-0.1-1.7-0.4-2.3c-0.5-0.9-1.3-1.4-2.4-1.4c-1,0-1.7,0.4-2.2,1.2c-0.5,0.8-0.7,1.7-0.7,2.8
		c0,1.1,0.2,1.9,0.7,2.6c0.5,0.7,1.2,1.1,2.2,1.1C88.8,187.3,89.6,186.8,90,186z"/>
	<path fill="#427DE0" d="M94.4,178.4H96v1.4c0.4-0.5,0.8-0.8,1.1-1.1c0.6-0.4,1.2-0.6,1.9-0.6c0.8,0,1.4,0.2,1.9,0.6
		c0.3,0.2,0.5,0.6,0.7,1c0.4-0.5,0.8-0.9,1.3-1.2c0.5-0.3,1.1-0.4,1.7-0.4c1.3,0,2.2,0.5,2.7,1.4c0.3,0.5,0.4,1.2,0.4,2.1v6.6H106
		v-6.9c0-0.7-0.2-1.1-0.5-1.4c-0.3-0.2-0.7-0.4-1.2-0.4c-0.7,0-1.2,0.2-1.7,0.7c-0.5,0.4-0.7,1.2-0.7,2.2v5.8h-1.7v-6.5
		c0-0.7-0.1-1.2-0.2-1.5c-0.3-0.5-0.7-0.7-1.4-0.7c-0.6,0-1.2,0.2-1.7,0.7s-0.8,1.4-0.8,2.7v5.3h-1.7V178.4z"/>
	<path fill="#427DE0" d="M110.2,178.4h1.7v1.4c0.4-0.5,0.8-0.8,1.1-1.1c0.6-0.4,1.2-0.6,1.9-0.6c0.8,0,1.4,0.2,1.9,0.6
		c0.3,0.2,0.5,0.6,0.7,1c0.4-0.5,0.8-0.9,1.3-1.2c0.5-0.3,1.1-0.4,1.7-0.4c1.3,0,2.2,0.5,2.7,1.4c0.3,0.5,0.4,1.2,0.4,2.1v6.6h-1.7
		v-6.9c0-0.7-0.2-1.1-0.5-1.4c-0.3-0.2-0.7-0.4-1.2-0.4c-0.7,0-1.2,0.2-1.7,0.7c-0.5,0.4-0.7,1.2-0.7,2.2v5.8H116v-6.5
		c0-0.7-0.1-1.2-0.2-1.5c-0.3-0.5-0.7-0.7-1.4-0.7c-0.6,0-1.2,0.2-1.7,0.7s-0.8,1.4-0.8,2.7v5.3h-1.7V178.4z"/>
	<path fill="#427DE0" d="M132.2,178.7c0.7,0.3,1.2,0.8,1.5,1.3c0.3,0.5,0.6,1.1,0.7,1.8c0.1,0.5,0.1,1.2,0.1,2.2h-7.2
		c0,1,0.3,1.8,0.7,2.4c0.4,0.6,1.1,0.9,2.1,0.9c0.9,0,1.6-0.3,2.1-0.9c0.3-0.3,0.5-0.7,0.6-1.2h1.6c0,0.4-0.2,0.8-0.4,1.2
		c-0.2,0.4-0.5,0.8-0.8,1.1c-0.5,0.5-1.1,0.8-1.9,1c-0.4,0.1-0.8,0.1-1.4,0.1c-1.2,0-2.3-0.5-3.1-1.3c-0.9-0.9-1.3-2.2-1.3-3.8
		c0-1.6,0.4-2.9,1.3-3.9s2-1.5,3.4-1.5C130.8,178.2,131.5,178.4,132.2,178.7z M132.8,182.6c-0.1-0.7-0.2-1.3-0.5-1.7
		c-0.5-0.8-1.2-1.2-2.3-1.2c-0.8,0-1.4,0.3-1.9,0.8c-0.5,0.6-0.8,1.3-0.8,2.1H132.8z"/>
	<path fill="#427DE0" d="M136.6,178.4h1.6v1.7c0.1-0.3,0.4-0.7,1-1.2c0.5-0.5,1.1-0.7,1.8-0.7c0,0,0.1,0,0.2,0s0.2,0,0.4,0v1.8
		c-0.1,0-0.2,0-0.3,0c-0.1,0-0.2,0-0.3,0c-0.8,0-1.5,0.3-1.9,0.8s-0.7,1.2-0.7,1.9v5.7h-1.7V178.4z"/>
	<path fill="#427DE0" d="M149.5,178.9c0.7,0.5,1.1,1.5,1.3,2.8h-1.6c-0.1-0.6-0.3-1.1-0.7-1.5s-0.9-0.6-1.7-0.6
		c-1.1,0-1.8,0.5-2.3,1.6c-0.3,0.7-0.4,1.5-0.4,2.5c0,1,0.2,1.8,0.6,2.5c0.4,0.7,1.1,1,2,1c0.7,0,1.2-0.2,1.6-0.6
		c0.4-0.4,0.7-1,0.8-1.7h1.6c-0.2,1.3-0.6,2.3-1.4,2.9s-1.7,0.9-2.8,0.9c-1.3,0-2.3-0.5-3.1-1.4c-0.8-0.9-1.2-2.1-1.2-3.6
		c0-1.7,0.4-3.1,1.3-4.1c0.8-1,1.9-1.5,3.2-1.5C147.9,178.1,148.8,178.4,149.5,178.9z"/>
	<path fill="#427DE0" d="M158.6,178.7c0.7,0.3,1.2,0.8,1.5,1.3c0.3,0.5,0.6,1.1,0.7,1.8c0.1,0.5,0.1,1.2,0.1,2.2h-7.2
		c0,1,0.3,1.8,0.7,2.4c0.4,0.6,1.1,0.9,2.1,0.9c0.9,0,1.6-0.3,2.1-0.9c0.3-0.3,0.5-0.7,0.6-1.2h1.6c0,0.4-0.2,0.8-0.4,1.2
		c-0.2,0.4-0.5,0.8-0.8,1.1c-0.5,0.5-1.1,0.8-1.9,1c-0.4,0.1-0.8,0.1-1.4,0.1c-1.2,0-2.3-0.5-3.1-1.3c-0.9-0.9-1.3-2.2-1.3-3.8
		c0-1.6,0.4-2.9,1.3-3.9s2-1.5,3.4-1.5C157.2,178.2,157.9,178.4,158.6,178.7z M159.2,182.6c-0.1-0.7-0.2-1.3-0.5-1.7
		c-0.5-0.8-1.2-1.2-2.3-1.2c-0.8,0-1.4,0.3-1.9,0.8c-0.5,0.6-0.8,1.3-0.8,2.1H159.2z"/>
	<path fill="#427DE0" d="M168.6,175.6h1.7v2.8h1.6v1.4h-1.6v6.5c0,0.3,0.1,0.6,0.4,0.7c0.1,0.1,0.3,0.1,0.6,0.1c0.1,0,0.2,0,0.3,0
		s0.2,0,0.3,0v1.3c-0.2,0.1-0.4,0.1-0.6,0.1c-0.2,0-0.4,0-0.7,0c-0.8,0-1.3-0.2-1.6-0.6c-0.3-0.4-0.4-0.9-0.4-1.6v-6.6h-1.3v-1.4
		h1.3V175.6z"/>
	<path fill="#427DE0" d="M180.7,179.4c0.9,0.9,1.3,2.1,1.3,3.8c0,1.6-0.4,2.9-1.2,4c-0.8,1-2,1.6-3.6,1.6c-1.4,0-2.4-0.5-3.2-1.4
		c-0.8-0.9-1.2-2.2-1.2-3.7c0-1.7,0.4-3,1.3-4c0.8-1,2-1.5,3.4-1.5C178.8,178.1,179.9,178.6,180.7,179.4z M179.7,186
		c0.4-0.8,0.6-1.8,0.6-2.8c0-0.9-0.1-1.7-0.4-2.3c-0.5-0.9-1.3-1.4-2.4-1.4c-1,0-1.7,0.4-2.2,1.2c-0.5,0.8-0.7,1.7-0.7,2.8
		c0,1.1,0.2,1.9,0.7,2.6c0.5,0.7,1.2,1.1,2.2,1.1C178.5,187.3,179.3,186.8,179.7,186z"/>
	<path fill="#427DE0" d="M198.7,175.1c1.3,0.7,2.2,2,2.5,3.7h-1.8c-0.2-1-0.7-1.7-1.4-2.2c-0.7-0.5-1.5-0.7-2.6-0.7
		c-1.2,0-2.3,0.5-3.1,1.4c-0.8,0.9-1.3,2.4-1.3,4.2c0,1.6,0.3,2.9,1,4c0.7,1,1.8,1.5,3.4,1.5c1.2,0,2.2-0.4,3-1.1
		c0.8-0.7,1.2-1.9,1.2-3.5h-4.3v-1.5h6v7.3h-1.2l-0.4-1.8c-0.6,0.7-1.2,1.2-1.6,1.4c-0.8,0.5-1.8,0.7-3,0.7c-1.6,0-3-0.5-4.1-1.6
		c-1.2-1.3-1.9-3.1-1.9-5.4c0-2.3,0.6-4.1,1.8-5.4c1.2-1.3,2.7-1.9,4.5-1.9C196.7,174.4,197.8,174.6,198.7,175.1z"/>
	<path fill="#427DE0" d="M211.4,179.4c0.9,0.9,1.3,2.1,1.3,3.8c0,1.6-0.4,2.9-1.2,4c-0.8,1-2,1.6-3.6,1.6c-1.4,0-2.4-0.5-3.2-1.4
		c-0.8-0.9-1.2-2.2-1.2-3.7c0-1.7,0.4-3,1.3-4c0.8-1,2-1.5,3.4-1.5C209.4,178.1,210.5,178.6,211.4,179.4z M210.3,186
		c0.4-0.8,0.6-1.8,0.6-2.8c0-0.9-0.1-1.7-0.4-2.3c-0.5-0.9-1.3-1.4-2.4-1.4c-1,0-1.7,0.4-2.2,1.2c-0.5,0.8-0.7,1.7-0.7,2.8
		c0,1.1,0.2,1.9,0.7,2.6c0.5,0.7,1.2,1.1,2.2,1.1C209.2,187.3,209.9,186.8,210.3,186z"/>
	<path fill="#427DE0" d="M221.9,179.4c0.9,0.9,1.3,2.1,1.3,3.8c0,1.6-0.4,2.9-1.2,4c-0.8,1-2,1.6-3.6,1.6c-1.4,0-2.4-0.5-3.2-1.4
		c-0.8-0.9-1.2-2.2-1.2-3.7c0-1.7,0.4-3,1.3-4c0.8-1,2-1.5,3.4-1.5C220,178.1,221.1,178.6,221.9,179.4z M220.9,186
		c0.4-0.8,0.6-1.8,0.6-2.8c0-0.9-0.1-1.7-0.4-2.3c-0.5-0.9-1.3-1.4-2.4-1.4c-1,0-1.7,0.4-2.2,1.2c-0.5,0.8-0.7,1.7-0.7,2.8
		c0,1.1,0.2,1.9,0.7,2.6c0.5,0.7,1.2,1.1,2.2,1.1C219.7,187.3,220.5,186.8,220.9,186z"/>
	<path fill="#427DE0" d="M230.8,178.8c0.3,0.2,0.6,0.5,1,0.9v-1.3h1.5v9c0,1.3-0.2,2.3-0.6,3c-0.7,1.3-2,2-3.9,2
		c-1.1,0-2-0.2-2.7-0.7s-1.1-1.2-1.2-2.2h1.7c0.1,0.4,0.2,0.8,0.5,1c0.4,0.4,1,0.6,1.8,0.6c1.3,0,2.1-0.5,2.5-1.4
		c0.2-0.5,0.3-1.5,0.3-2.8c-0.3,0.5-0.7,0.9-1.2,1.1c-0.5,0.2-1.1,0.4-1.9,0.4c-1.1,0-2-0.4-2.8-1.1c-0.8-0.8-1.2-2-1.2-3.8
		c0-1.7,0.4-3,1.2-3.9c0.8-0.9,1.8-1.4,2.9-1.4C229.6,178.2,230.2,178.4,230.8,178.8z M231,180.6c-0.5-0.6-1.1-0.9-1.9-0.9
		c-1.2,0-2,0.5-2.4,1.7c-0.2,0.6-0.3,1.4-0.3,2.3c0,1.1,0.2,2,0.7,2.6c0.5,0.6,1.1,0.9,1.8,0.9c1.2,0,2-0.5,2.5-1.6
		c0.3-0.6,0.4-1.3,0.4-2.1C231.8,182.1,231.5,181.2,231,180.6z"/>
	<path fill="#427DE0" d="M235.9,174.7h1.7v13.6h-1.7V174.7z"/>
	<path fill="#427DE0" d="M246.2,178.7c0.7,0.3,1.2,0.8,1.5,1.3c0.3,0.5,0.6,1.1,0.7,1.8c0.1,0.5,0.1,1.2,0.1,2.2h-7.2
		c0,1,0.3,1.8,0.7,2.4c0.4,0.6,1.1,0.9,2.1,0.9c0.9,0,1.6-0.3,2.1-0.9c0.3-0.3,0.5-0.7,0.6-1.2h1.6c0,0.4-0.2,0.8-0.4,1.2
		c-0.2,0.4-0.5,0.8-0.8,1.1c-0.5,0.5-1.1,0.8-1.9,1c-0.4,0.1-0.8,0.1-1.4,0.1c-1.2,0-2.3-0.5-3.1-1.3c-0.9-0.9-1.3-2.2-1.3-3.8
		c0-1.6,0.4-2.9,1.3-3.9s2-1.5,3.4-1.5C244.9,178.2,245.6,178.4,246.2,178.7z M246.8,182.6c-0.1-0.7-0.2-1.3-0.5-1.7
		c-0.5-0.8-1.2-1.2-2.3-1.2c-0.8,0-1.4,0.3-1.9,0.8c-0.5,0.6-0.8,1.3-0.8,2.1H246.8z"/>
	<path fill="#427DE0" d="M257.4,184c0,0.8,0.2,1.4,0.5,1.9c0.6,0.9,1.6,1.4,3.1,1.4c0.7,0,1.3-0.1,1.8-0.3c1.1-0.4,1.6-1.1,1.6-2.1
		c0-0.7-0.2-1.3-0.7-1.6c-0.5-0.3-1.2-0.6-2.1-0.8l-1.8-0.4c-1.2-0.3-2-0.6-2.5-0.9c-0.8-0.6-1.3-1.4-1.3-2.6c0-1.2,0.4-2.2,1.2-3
		c0.8-0.8,2-1.2,3.5-1.2c1.4,0,2.6,0.3,3.5,1c1,0.7,1.5,1.8,1.5,3.3h-1.7c-0.1-0.7-0.3-1.3-0.6-1.7c-0.5-0.7-1.5-1.1-2.7-1.1
		c-1,0-1.8,0.2-2.2,0.7c-0.5,0.5-0.7,1-0.7,1.6c0,0.7,0.3,1.2,0.8,1.5c0.4,0.2,1.2,0.4,2.4,0.7l1.9,0.4c0.9,0.2,1.6,0.5,2.1,0.9
		c0.8,0.6,1.3,1.6,1.3,2.8c0,1.5-0.5,2.6-1.6,3.2s-2.3,1-3.7,1c-1.7,0-2.9-0.4-3.9-1.3c-0.9-0.9-1.4-2-1.4-3.5H257.4z"/>
	<path fill="#427DE0" d="M268.6,174.7h1.7v5.1c0.4-0.5,0.8-0.9,1.1-1.1c0.5-0.4,1.2-0.5,2-0.5c1.4,0,2.4,0.5,2.9,1.5
		c0.3,0.6,0.4,1.3,0.4,2.3v6.4H275v-6.3c0-0.7-0.1-1.3-0.3-1.6c-0.3-0.5-0.9-0.8-1.7-0.8c-0.7,0-1.3,0.2-1.9,0.7
		c-0.6,0.5-0.8,1.4-0.8,2.7v5.3h-1.7V174.7z"/>
	<path fill="#427DE0" d="M286.4,179.4c0.9,0.9,1.3,2.1,1.3,3.8c0,1.6-0.4,2.9-1.2,4c-0.8,1-2,1.6-3.6,1.6c-1.4,0-2.4-0.5-3.2-1.4
		c-0.8-0.9-1.2-2.2-1.2-3.7c0-1.7,0.4-3,1.3-4c0.8-1,2-1.5,3.4-1.5C284.4,178.1,285.5,178.6,286.4,179.4z M285.3,186
		c0.4-0.8,0.6-1.8,0.6-2.8c0-0.9-0.1-1.7-0.4-2.3c-0.5-0.9-1.3-1.4-2.4-1.4c-1,0-1.7,0.4-2.2,1.2c-0.5,0.8-0.7,1.7-0.7,2.8
		c0,1.1,0.2,1.9,0.7,2.6c0.5,0.7,1.2,1.1,2.2,1.1C284.2,187.3,284.9,186.8,285.3,186z"/>
	<path fill="#427DE0" d="M289.6,178.5h1.6v1.3c0.3-0.5,0.7-0.8,1.1-1c0.6-0.4,1.2-0.6,2-0.6c1.1,0,2.1,0.4,2.9,1.3
		c0.8,0.9,1.2,2.1,1.2,3.7c0,2.2-0.6,3.7-1.7,4.6c-0.7,0.6-1.6,0.9-2.5,0.9c-0.8,0-1.4-0.2-1.9-0.5c-0.3-0.2-0.6-0.5-1-1v5.1h-1.7
		V178.5z M295.9,186.2c0.5-0.7,0.8-1.6,0.8-2.9c0-0.8-0.1-1.5-0.3-2c-0.4-1.1-1.2-1.6-2.4-1.6c-1.2,0-2,0.6-2.4,1.7
		c-0.2,0.6-0.3,1.4-0.3,2.4c0,0.8,0.1,1.4,0.3,2c0.4,1,1.2,1.5,2.4,1.5C294.7,187.2,295.4,186.9,295.9,186.2z"/>
	<path fill="#427DE0" d="M300.2,178.5h1.6v1.3c0.3-0.5,0.7-0.8,1.1-1c0.6-0.4,1.2-0.6,2-0.6c1.1,0,2.1,0.4,2.9,1.3
		c0.8,0.9,1.2,2.1,1.2,3.7c0,2.2-0.6,3.7-1.7,4.6c-0.7,0.6-1.6,0.9-2.5,0.9c-0.8,0-1.4-0.2-1.9-0.5c-0.3-0.2-0.6-0.5-1-1v5.1h-1.7
		V178.5z M306.5,186.2c0.5-0.7,0.8-1.6,0.8-2.9c0-0.8-0.1-1.5-0.3-2c-0.4-1.1-1.2-1.6-2.4-1.6c-1.2,0-2,0.6-2.4,1.7
		c-0.2,0.6-0.3,1.4-0.3,2.4c0,0.8,0.1,1.4,0.3,2c0.4,1,1.2,1.5,2.4,1.5C305.3,187.2,305.9,186.9,306.5,186.2z"/>
	<path fill="#427DE0" d="M310.9,174.7h1.7v1.9h-1.7V174.7z M310.9,178.5h1.7v9.9h-1.7V178.5z"/>
	<path fill="#427DE0" d="M315.1,178.4h1.6v1.4c0.5-0.6,1-1,1.5-1.3s1.1-0.4,1.8-0.4c1.4,0,2.4,0.5,2.9,1.5c0.3,0.5,0.4,1.3,0.4,2.3
		v6.4h-1.7v-6.3c0-0.6-0.1-1.1-0.3-1.5c-0.3-0.6-0.8-0.9-1.6-0.9c-0.4,0-0.7,0-1,0.1c-0.5,0.1-0.9,0.4-1.2,0.8
		c-0.3,0.3-0.5,0.7-0.5,1c-0.1,0.3-0.1,0.8-0.1,1.5v5.2h-1.7V178.4z"/>
	<path fill="#427DE0" d="M331.2,178.8c0.3,0.2,0.6,0.5,1,0.9v-1.3h1.5v9c0,1.3-0.2,2.3-0.6,3c-0.7,1.3-2,2-3.9,2
		c-1.1,0-2-0.2-2.7-0.7s-1.1-1.2-1.2-2.2h1.7c0.1,0.4,0.2,0.8,0.5,1c0.4,0.4,1,0.6,1.8,0.6c1.3,0,2.1-0.5,2.5-1.4
		c0.2-0.5,0.3-1.5,0.3-2.8c-0.3,0.5-0.7,0.9-1.2,1.1c-0.5,0.2-1.1,0.4-1.9,0.4c-1.1,0-2-0.4-2.8-1.1c-0.8-0.8-1.2-2-1.2-3.8
		c0-1.7,0.4-3,1.2-3.9c0.8-0.9,1.8-1.4,2.9-1.4C329.9,178.2,330.6,178.4,331.2,178.8z M331.4,180.6c-0.5-0.6-1.1-0.9-1.9-0.9
		c-1.2,0-2,0.5-2.4,1.7c-0.2,0.6-0.3,1.4-0.3,2.3c0,1.1,0.2,2,0.7,2.6c0.5,0.6,1.1,0.9,1.8,0.9c1.2,0,2-0.5,2.5-1.6
		c0.3-0.6,0.4-1.3,0.4-2.1C332.1,182.1,331.9,181.2,331.4,180.6z"/>
	<path fill="#427DE0" d="M344.7,174.7h2.1l4.9,13.6h-2l-1.4-4.1h-5.3l-1.5,4.1h-1.9L344.7,174.7z M347.7,182.8l-2.1-6l-2.2,6H347.7z
		"/>
	<path fill="#427DE0" d="M353.5,174.7h6.1c1.2,0,2.2,0.3,2.9,1c0.7,0.7,1.1,1.6,1.1,2.9c0,1.1-0.3,2-1,2.8c-0.7,0.8-1.7,1.2-3,1.2
		h-4.3v5.8h-1.8V174.7z M360.7,176.6c-0.4-0.2-1-0.3-1.7-0.3h-3.6v4.7h3.6c0.8,0,1.5-0.2,2-0.5s0.8-1,0.8-1.9
		C361.8,177.6,361.4,177,360.7,176.6z"/>
	<path fill="#427DE0" d="M366.5,174.7h1.9v13.6h-1.9V174.7z"/>
</g>
</svg>
